Coordinates
version=1
nRows=13
nColumns=40
inDegrees=yes

Units are S.I. units (second, meters, Newtons, ...)
If the header above contains a line with 'inDegrees', this indicates whether rotational values are in degrees (yes) or radians (no).

endheader
time	pelvis_tilt	pelvis_list	pelvis_rotation	pelvis_tx	pelvis_ty	pelvis_tz	hip_flexion_r	hip_adduction_r	hip_rotation_r	knee_angle_r	knee_angle_r_beta	ankle_angle_r	subtalar_angle_r	mtp_angle_r	hip_flexion_l	hip_adduction_l	hip_rotation_l	knee_angle_l	knee_angle_l_beta	ankle_angle_l	subtalar_angle_l	mtp_angle_l	lumbar_extension	lumbar_bending	lumbar_rotation	arm_flex_r	arm_add_r	arm_rot_r	elbow_flex_r	pro_sup_r	wrist_flex_r	wrist_dev_r	arm_flex_l	arm_add_l	arm_rot_l	elbow_flex_l	pro_sup_l	wrist_flex_l	wrist_dev_l
      0.00000000	     20.39708912	      2.83103700	      3.25715016	     -0.01271545	      0.97775831	     -0.34666321	      1.55509174	     -5.20016978	     -7.62178876	     34.04913165	      0.59426945	     -6.62395226	      0.00000000	      0.00000000	    -27.43785445	      4.36543313	      6.94536634	     10.01565947	      0.17480623	     -4.90899362	      0.00000000	      0.00000000	    -34.11214331	     -1.27703400	     -7.80870151	     -0.07979883	    -14.89604111	      7.26973430	     38.65694122	     74.96741744	      0.00000000	      0.00000000	      8.15609309	    -27.05206092	     25.16245723	     56.44267021	     71.91607931	      0.00000000	      0.00000000
      0.00400000	     20.16667575	      2.99134644	      3.21359027	     -0.00810327	      0.97679974	     -0.34670713	      2.16988417	     -5.41354815	     -7.76793072	     33.19990954	      0.57944773	     -6.64521207	      0.00000000	      0.00000000	    -27.55777450	      4.53482870	      6.86815153	      9.91547781	      0.17305773	     -4.82493857	      0.00000000	      0.00000000	    -33.95289704	     -1.41148925	     -7.98182141	     -0.11313788	    -14.87883950	      7.26035664	     38.69909373	     74.97683913	      0.00000000	      0.00000000	      8.35220152	    -27.15787959	     25.18673898	     56.59409907	     71.88415003	      0.00000000	      0.00000000
      0.00800000	     19.97928021	      3.18932175	      3.22511894	     -0.00360074	      0.97593112	     -0.34692822	      2.67899047	     -5.65432047	     -7.86982984	     32.22328630	      0.56240244	     -6.79855847	      0.00000000	      0.00000000	    -27.70373873	      4.72762162	      6.88566089	      9.86256529	      0.17213424	     -4.74205418	      0.00000000	      0.00000000	    -33.86285915	     -1.55280944	     -8.19341511	     -0.12530230	    -14.85436984	      7.19684099	     38.71463795	     74.95367669	      0.00000000	      0.00000000	      8.53861315	    -27.25570700	     25.26276553	     56.75495785	     71.86157636	      0.00000000	      0.00000000
      0.01200000	     19.89670925	      3.21144088	      3.42838799	      0.00077690	      0.97534261	     -0.34701991	      2.91789669	     -5.62927773	     -8.13493251	     30.91222127	      0.53952004	     -7.44030962	      0.00000000	      0.00000000	    -27.92466001	      4.63501904	      7.10377177	      9.82681883	      0.17151034	     -4.70644447	      0.00000000	      0.00000000	    -33.89417762	     -1.45787046	     -8.40228727	     -0.09159295	    -14.68245161	      6.70252449	     38.50103890	     74.49455091	      0.00000000	      0.00000000	      8.90676543	    -27.39624869	     25.58798025	     56.80493733	     71.80182044	      0.00000000	      0.00000000
      0.01600000	     19.67217855	      3.33599899	      3.39244852	      0.00543882	      0.97424642	     -0.34704259	      3.50070147	     -5.80602167	     -8.39568365	     30.03816691	      0.52426491	     -7.43420151	      0.00000000	      0.00000000	    -28.06539113	      4.77477536	      6.96931606	      9.72066611	      0.16965763	     -4.55992947	      0.00000000	      0.00000000	    -33.73415616	     -1.56731625	     -8.49052866	     -0.16554439	    -14.64122346	      6.94369212	     38.62673253	     74.62909127	      0.00000000	      0.00000000	      9.11130220	    -27.47835993	     25.72508788	     56.91502910	     71.80345868	      0.00000000	      0.00000000
      0.02000000	     19.53725739	      3.46257849	      3.34572779	      0.00973560	      0.97343853	     -0.34706368	      3.89646461	     -5.92047602	     -8.45647473	     28.88379202	      0.50411727	     -7.77231869	      0.00000000	      0.00000000	    -28.21153346	      4.91436555	      6.96054313	      9.74887748	      0.17015001	     -4.46434402	      0.00000000	      0.00000000	    -33.71494105	     -1.66060522	     -8.66068390	     -0.07830289	    -14.61553373	      6.93359930	     38.61613878	     74.73380925	      0.00000000	      0.00000000	      9.33902935	    -27.57476624	     25.83912342	     56.96302055	     71.79307700	      0.00000000	      0.00000000
      0.02400000	     19.44236657	      3.46645713	      3.57975983	      0.01427443	      0.97270497	     -0.34688885	      4.11297102	     -5.86262895	     -8.81221957	     27.56227592	      0.48105246	     -8.38495833	      0.00000000	      0.00000000	    -28.40220229	      4.75686955	      7.09558054	      9.79348441	      0.17092855	     -4.33258143	      0.00000000	      0.00000000	    -33.72945858	     -1.56474651	     -8.89077277	     -0.09722391	    -14.47148895	      6.70701465	     38.51778895	     74.85557250	      0.00000000	      0.00000000	      9.59973078	    -27.73731202	     25.97851595	     57.12241848	     71.76239370	      0.00000000	      0.00000000
      0.02800000	     19.34862610	      3.51136075	      3.61884204	      0.01869722	      0.97186803	     -0.34696272	      4.41081672	     -5.87665756	     -9.01450134	     26.38410851	      0.46048956	     -8.73870665	      0.00000000	      0.00000000	    -28.58187368	      4.76626002	      6.98845500	      9.85485744	      0.17199971	     -4.16714154	      0.00000000	      0.00000000	    -33.75334207	     -1.54681191	     -8.95574817	     -0.10909661	    -14.43600643	      6.26500610	     38.45434785	     74.37101377	      0.00000000	      0.00000000	      9.91154486	    -27.79455681	     26.15843209	     57.18721026	     71.73616781	      0.00000000	      0.00000000
      0.03200000	     19.24791614	      3.62416051	      3.79900809	      0.02276727	      0.97105517	     -0.34703312	      4.71932028	     -5.95970434	     -9.35872285	     25.23533116	      0.44043962	     -9.14521520	      0.00000000	      0.00000000	    -28.69694171	      4.77505615	      7.12232984	      9.99769248	      0.17449265	     -3.93058902	      0.00000000	      0.00000000	    -33.79651284	     -1.54929804	     -9.18030087	     -0.02969424	    -14.34795043	      6.20330483	     38.34191119	     74.11104824	      0.00000000	      0.00000000	     10.30745946	    -27.94237214	     26.44260570	     57.23928041	     71.72519937	      0.00000000	      0.00000000
      0.03600000	     18.97822961	      3.73908147	      3.81009993	      0.02782132	      0.96974954	     -0.34692433	      5.30511343	     -6.09042604	     -9.65300480	     24.41349303	      0.42609584	     -9.05115122	      0.00000000	      0.00000000	    -28.78578241	      4.86726108	      6.96452506	      9.96069205	      0.17384687	     -3.77013341	      0.00000000	      0.00000000	    -33.55584368	     -1.64857583	     -9.32086016	     -0.13256883	    -14.26274473	      6.32490372	     38.44389371	     74.23039214	      0.00000000	      0.00000000	     10.40374804	    -28.04075340	     26.51386598	     57.35390168	     71.72724256	      0.00000000	      0.00000000
      0.04000000	     18.75471487	      3.85991095	      3.76741809	      0.03243794	      0.96861941	     -0.34690247	      5.83446852	     -6.19789763	     -9.86379250	     23.46220284	      0.40949269	     -9.17812766	      0.00000000	      0.00000000	    -28.85491299	      4.99784723	      6.89648683	     10.00367200	      0.17459701	     -3.61108576	      0.00000000	      0.00000000	    -33.41868044	     -1.75319293	     -9.42223940	     -0.06762987	    -14.26698484	      6.06633774	     38.31066217	     74.13810543	      0.00000000	      0.00000000	     10.56295613	    -28.09530673	     26.51935329	     57.45097116	     71.72733085	      0.00000000	      0.00000000
      0.04400000	     18.64191322	      3.81055273	      3.69230688	      0.03657145	      0.96772210	     -0.34655521	      6.17281308	     -6.03138924	     -9.91804009	     22.22283259	      0.38786160	     -9.80509977	      0.00000000	      0.00000000	    -28.94261492	      4.94957145	      6.73018046	     10.16677110	      0.17744363	     -3.40431786	      0.00000000	      0.00000000	    -33.44436304	     -1.72295961	     -9.36056394	      0.04185365	    -14.14155725	      5.76656830	     38.18133975	     73.97611113	      0.00000000	      0.00000000	     10.91146258	    -28.13746418	     26.65662590	     57.42405373	     71.77933502	      0.00000000	      0.00000000
      0.04800000	     18.46330697	      3.88765813	      3.60356119	      0.04122959	      0.96650355	     -0.34630154	      6.79793734	     -6.09745021	    -10.23716191	     21.64223056	      0.37772818	     -9.64560597	      0.00000000	      0.00000000	    -29.06125990	      5.04690333	      6.58217134	     10.19037193	      0.17785554	     -3.31313721	      0.00000000	      0.00000000	    -33.36395871	     -1.81773460	     -9.38875477	      0.04714547	    -14.12346468	      5.77111565	     38.20857476	     73.95782299	      0.00000000	      0.00000000	     11.09746161	    -28.21017381	     26.65553636	     57.52440077	     71.78742582	      0.00000000	      0.00000000
